# xmcd CD database file
#
# Track frame offsets:
#	150
#	8634
#	19917
#	30212
#	44185
#	52315
#	62984
#	75660
#	85291
#	98377
#	108868
#	121135
#	130153
#	139596
#	151547
#	162079
#	172817
#	185238
#	195339
#	208714
#	217925
#	229969
#	242831
#	253200
#	263036
#	275736
#
# Disc length: 3820 seconds
#
# Revision: 0
# Processed by: cddbd v1.5.2PL0 Copyright (c) Steve Scherf et al.
# Submitted via: ACXtractor (MTCDDB.DLL V2003.07.15)
#
DISCID=610eea1a
DTITLE=Dolly and Porter - Duets
DYEAR=1994
DGENRE=Country
TTITLE0=Before I Met You
TTITLE1=Holding on to Nothing
TTITLE2=Curse of the Wild Wood Flower
TTITLE3=Dady was an old time Preacher
TTITLE4=Burning the Midnight Oil
TTITLE5=Put off Until Tomorrow
TTITLE6=Tomorrow is Forever
TTITLE7=If Teardrops Were Pennies
TTITLE8=The Right Combination
TTITLE9=Two Sides to Every Story
TTITLE10=The Voilet and the Rose
TTITLE11=Fred Joe and Bill
TTITLE12=A Little bitty Tear
TTITLE13=Find me a Bluebird
TTITLE14=Just Between You and Me
TTITLE15=Just someone I Use to Know
TTITLE16=The Mansion
TTITLE17=Old Love Letters
TTITLE18=The Flame
TTITLE19=The House Where Love Lives
TTITLE20=If you go I'll Follow You
TTITLE21=Sixteen Years
TTITLE22=Sorrow's Tearing Down This House
TTITLE23=I Don't Believe You've Met My Baby
TTITLE24=I didn't Mean It
TTITLE25=Take Away
EXTD=ID3G:   2 YEAR: 1994
EXTT0=
EXTT1=
EXTT2=
EXTT3=
EXTT4=
EXTT5=
EXTT6=
EXTT7=
EXTT8=
EXTT9=
EXTT10=
EXTT11=
EXTT12=
EXTT13=
EXTT14=
EXTT15=
EXTT16=
EXTT17=
EXTT18=
EXTT19=
EXTT20=
EXTT21=
EXTT22=
EXTT23=
EXTT24=
EXTT25=
PLAYORDER=
